<svg xmlns="http://www.w3.org/2000/svg" width="1600" height="1000" viewBox="0 0 1600 1000"><defs><linearGradient id="bg" x1="0" y1="0" x2="1" y2="1"><stop stop-color="#edf4ef"/><stop offset="1" stop-color="#d8e7df"/></linearGradient><linearGradient id="teal"><stop stop-color="#0f8f84"/><stop offset="1" stop-color="#125651"/></linearGradient><filter id="shadow"><feDropShadow dx="0" dy="16" stdDeviation="20" flood-color="#10251d" flood-opacity=".12"/></filter></defs><rect width="1600" height="1000" fill="url(#bg)"/><circle cx="210" cy="90" r="230" fill="#84c98f" opacity=".2"/><circle cx="1420" cy="160" r="210" fill="#0f8f84" opacity=".14"/><g font-family="Microsoft YaHei, Segoe UI, sans-serif" fill="#10251d"><rect x="70" y="70" width="1460" height="260" rx="32" fill="#fff" fill-opacity=".84" filter="url(#shadow)"/><text x="115" y="125" font-size="18" font-weight="700" fill="#5d7269" letter-spacing="2">COCKPIT ? RISK HEATMAP</text><text x="115" y="205" font-size="64" font-weight="800">????</text><text x="115" y="265" font-size="22" fill="#5d7269">?????????????????????????????</text><rect x="70" y="370" width="1460" height="480" rx="28" fill="#9dcabd" filter="url(#shadow)"/><path d="M80 510C300 390 440 520 620 550C800 580 950 420 1520 500V850H70Z" fill="#efe5bf" opacity=".78"/><ellipse cx="1020" cy="510" rx="220" ry="150" fill="#e86e58" opacity=".65"/><ellipse cx="440" cy="680" rx="180" ry="120" fill="#e8b04b" opacity=".55"/><rect x="100" y="745" width="270" height="70" rx="18" fill="#fff" fill-opacity=".84"/><circle cx="130" cy="770" r="9" fill="#e86e58"/><text x="155" y="776" font-size="15" fill="#5d7269">?????</text><circle cx="130" cy="800" r="9" fill="#e8b04b"/><text x="155" y="806" font-size="15" fill="#5d7269">???</text></g><text x="70" y="940" font-family="Microsoft YaHei, Segoe UI, sans-serif" font-size="16" fill="#5d7269">?? 06 ? ???? / Heatmap</text></svg>